# xmcd
#
# Track frame offsets:
#	150
#	13965
#	28139
#	42613
#	57538
#	71792
#	85512
#	99316
#	113938
#	129013
#	143642
#	157664
#	173263
#	187513
#	202816
#	217514
#	232887
#	247665
#
# Disc length: 3490 seconds
#
# Revision: 1
# Processed by: cddbd v1.5.2PL0 Copyright (c) Steve Scherf et al.
# Submitted via: EasyCDDAExtractor 16.0.8.2
#
DISCID=d10da012
DTITLE=Αρχ. Ελλ. Δ.-Συνθ. ρεμπ. 05-Τούντας Παν. 1
DYEAR=1999
DGENRE=Ρεμπέτικη
TTITLE0=Ρούκουνας Κώστας ή Σαμιωτάκης - Το κουκλί της Κοκκινιάς [1930, μ. στ. 
TTITLE0=Π. Τούντα]
TTITLE1=Μαρίκα η Πολίτισσα - Πασαλιμανιώτισσα [1939, μ. στ. Π. Τούντα]
TTITLE2=Εσκενάζυ Ρόζα - Λιλή η σκανδαλιάρα [1931, μ. στ. Π. Τούντα]
TTITLE3=Αμπατζή Ρίτα - Με ζουρνάδες και νταούλια [1933, μ. στ. Π. Τούντα]
TTITLE4=Ρούκουνας Κώστας ή Σαμιωτάκης - Η Μαρίκα η δασκάλα [1936, μ. στ. Π. Το
TTITLE4=ύντα]
TTITLE5=Μαρίκα η Πολίτισσα - Πριγκιπιώτισσα [1930, μ. στ. Π. Τούντα]
TTITLE6=Ρούκουνας Κώστας ή Σαμιωτάκης - Αλάνης μάνας γιος [1930, μ. στ. Π. Τού
TTITLE6=ντα]
TTITLE7=Αμπατζή Ρίτα - Για την αγάπη σου [1934, μ. στ. Π. Τούντα]
TTITLE8=Αμπατζή Ρίτα - Η γκαρσόνα [1936, μ. στ. Π. Τούντα]
TTITLE9=Εσκενάζυ Ρόζα - Γιατί φουμάρω κοκαΐνη [1932, μ. στ. Π. Τούντα]
TTITLE10=Εσκενάζυ Ρόζα - Μάγισσα κακιά [1930, μ. στ. Π. Τούντα]
TTITLE11=Νούρος Ν. - Ο βαρκάρης [1934, Δ. Χολέβα-Δ. Σέμση]
TTITLE12=Αμπατζή Ρίτα - Τουρκολιμανιώτισσα γλυκειά [1936, μ. στ. Π. Τούντα]
TTITLE13=Εσκενάζυ Ρόζα - Αληθινή αγάπη [1930, μ. στ. Π. Τούντα]
TTITLE14=Ρούκουνας Κώστας ή Σαμιωτάκης - Στους Ποδαράδες [1931, μ. στ. Π. Τούν
TTITLE14=τα]
TTITLE15=Τσανάκος Κώστας - Κρασοπίνω [1936, μ. στ. Π. Τούντα]
TTITLE16=Εσκενάζυ Ρόζα - Γίνομαι άνδρας [1934, μ. στ. Π. Τούντα]
TTITLE17=Βιδάλης Γιώργος-Ξηρέλλης Τίτος ή Βαλέρης - Προσφυγοπούλα [1936, μ. στ
TTITLE17=Π. Τούντα]
EXTD=
EXTT0=
EXTT1=
EXTT2=
EXTT3=
EXTT4=
EXTT5=
EXTT6=
EXTT7=
EXTT8=
EXTT9=
EXTT10=
EXTT11=
EXTT12=
EXTT13=
EXTT14=
EXTT15=
EXTT16=
EXTT17=
PLAYORDER=
